STARTFONT 2.1
FONT -HP-HP System-Medium-R-Normal--26-171-110-110-P-150-ISO8859-5
SIZE 17 110 110
FONTBOUNDINGBOX 20 26 0 -6

STARTPROPERTIES 26
COPYRIGHT "Copyright (c) 1994-95, Hewlett-Packard Co. All rights reserved."
NOTICE "This Font is licensed for use on Hewlett-Packard Equipment only."
FONTNAME_REGISTRY ""
FAMILY_NAME "HP System"
FOUNDRY "HP"
WEIGHT_NAME "Medium"
SETWIDTH_NAME "Normal"
SLANT "R"
ADD_STYLE_NAME "Sans Serif"
PIXEL_SIZE 26
POINT_SIZE 171
RESOLUTION_X 110
RESOLUTION_Y 110
SPACING "P"
AVERAGE_WIDTH 150
CHARSET_REGISTRY "ISO8859"
CHARSET_ENCODING "5"
CHARSET_COLLECTIONS "ISO8859-5"
FULL_NAME "HP System26"
CAP_HEIGHT 16
X_HEIGHT 10
WEIGHT 10
QUAD_WIDTH 12
DEFAULT_CHAR 32
FONT_DESCENT 6
FONT_ASCENT 20
ENDPROPERTIES

CHARS 192

STARTCHAR space
ENCODING 32
SWIDTH 269 0
DWIDTH 7 0
BBX 1 1 0 0
BITMAP
00
ENDCHAR

STARTCHAR exclam
ENCODING 33
SWIDTH 346 0
DWIDTH 9 0
BBX 3 18 3 -1
BITMAP
E0
E0
E0
E0
E0
E0
E0
E0
E0
E0
E0
E0
00
00
00
E0
E0
E0
ENDCHAR

STARTCHAR quotedbl
ENCODING 34
SWIDTH 308 0
DWIDTH 8 0
BBX 6 6 1 11
BITMAP
CC
CC
CC
CC
CC
CC
ENDCHAR

STARTCHAR numbersign
ENCODING 35
SWIDTH 616 0
DWIDTH 16 0
BBX 14 18 1 -1
BITMAP
0318
0318
0318
0630
0630
3FFC
3FFC
0C60
0C60
18C0
18C0
FFF0
FFF0
3180
3180
6300
6300
6300
ENDCHAR

STARTCHAR dollar
ENCODING 36
SWIDTH 462 0
DWIDTH 12 0
BBX 11 22 1 -3
BITMAP
0400
0400
0400
1E00
7F80
E5C0
C4C0
C400
E400
7400
3E00
0F80
05C0
04E0
0460
C460
E4E0
7FC0
1F00
0400
0400
0400
ENDCHAR

STARTCHAR percent
ENCODING 37
SWIDTH 770 0
DWIDTH 20 0
BBX 18 18 1 -1
BITMAP
180C00
7E0C00
661800
C31800
C33000
C33000
666000
7E6000
18C000
00C600
019F80
019980
0330C0
0330C0
0630C0
061980
0C1F80
0C0600
ENDCHAR

STARTCHAR ampersand
ENCODING 38
SWIDTH 500 0
DWIDTH 13 0
BBX 12 18 1 -1
BITMAP
1F00
3F80
7180
6000
6000
6080
30C0
1FF0
3FF0
70C0
E0C0
C0C0
C0C0
C0C0
C0C0
E0E0
7FE0
3F80
ENDCHAR

STARTCHAR apostrophe
ENCODING 39
SWIDTH 269 0
DWIDTH 7 0
BBX 5 7 1 10
BITMAP
38
38
38
70
60
C0
80
ENDCHAR

STARTCHAR parenleft
ENCODING 40
SWIDTH 308 0
DWIDTH 8 0
BBX 5 20 2 -2
BITMAP
18
30
30
60
60
60
C0
C0
C0
C0
C0
C0
C0
C0
60
60
60
30
30
18
ENDCHAR

STARTCHAR parenright
ENCODING 41
SWIDTH 308 0
DWIDTH 8 0
BBX 5 20 1 -2
BITMAP
C0
60
60
30
30
30
18
18
18
18
18
18
18
18
30
30
30
60
60
C0
ENDCHAR

STARTCHAR asterisk
ENCODING 42
SWIDTH 616 0
DWIDTH 16 0
BBX 12 12 2 2
BITMAP
0600
4620
E670
76E0
3FC0
1F80
1F80
3FC0
76E0
E670
4620
0600
ENDCHAR

STARTCHAR plus
ENCODING 43
SWIDTH 616 0
DWIDTH 16 0
BBX 12 12 2 2
BITMAP
0600
0600
0600
0600
0600
FFF0
FFF0
0600
0600
0600
0600
0600
ENDCHAR

STARTCHAR comma
ENCODING 44
SWIDTH 269 0
DWIDTH 7 0
BBX 5 7 1 -3
BITMAP
38
38
38
70
60
C0
80
ENDCHAR

STARTCHAR minus
ENCODING 45
SWIDTH 616 0
DWIDTH 16 0
BBX 12 2 2 7
BITMAP
FFF0
FFF0
ENDCHAR

STARTCHAR period
ENCODING 46
SWIDTH 269 0
DWIDTH 7 0
BBX 3 3 2 0
BITMAP
E0
E0
E0
ENDCHAR

STARTCHAR slash
ENCODING 47
SWIDTH 462 0
DWIDTH 12 0
BBX 11 20 1 -2
BITMAP
0060
0060
00C0
00C0
0180
0180
0300
0300
0600
0600
0C00
0C00
1800
1800
3000
3000
6000
6000
C000
C000
ENDCHAR

STARTCHAR 0
ENCODING 48
SWIDTH 462 0
DWIDTH 12 0
BBX 10 16 1 0
BITMAP
1E00
3F00
6180
6180
C0C0
C0C0
C0C0
C0C0
C0C0
C0C0
C0C0
C0C0
6180
6180
3F00
1E00
ENDCHAR

STARTCHAR 1
ENCODING 49
SWIDTH 462 0
DWIDTH 12 0
BBX 6 16 3 0
BITMAP
0C
1C
3C
6C
CC
0C
0C
0C
0C
0C
0C
0C
0C
0C
0C
0C
ENDCHAR

STARTCHAR 2
ENCODING 50
SWIDTH 462 0
DWIDTH 12 0
BBX 10 16 1 0
BITMAP
1E00
7F80
E1C0
C0C0
C0C0
00C0
0180
0380
0700
0E00
1C00
3800
7000
E000
FFC0
FFC0
ENDCHAR

STARTCHAR 3
ENCODING 51
SWIDTH 462 0
DWIDTH 12 0
BBX 10 16 1 0
BITMAP
1E00
7F80
E1C0
C0C0
00C0
00C0
0180
0F00
0F80
01C0
00C0
00C0
C0C0
E1C0
7F80
1E00
ENDCHAR

STARTCHAR 4
ENCODING 52
SWIDTH 462 0
DWIDTH 12 0
BBX 11 16 1 0
BITMAP
0380
0780
0780
0D80
1980
1980
3180
6180
6180
C180
FFE0
FFE0
0180
0180
0180
0180
ENDCHAR

STARTCHAR 5
ENCODING 53
SWIDTH 462 0
DWIDTH 12 0
BBX 10 16 1 0
BITMAP
FF80
FF80
C000
C000
C000
DE00
FF80
E180
00C0
00C0
00C0
00C0
C0C0
E180
7F80
1E00
ENDCHAR

STARTCHAR 6
ENCODING 54
SWIDTH 462 0
DWIDTH 12 0
BBX 10 16 1 0
BITMAP
1E00
7F80
6180
C000
C000
C000
DE00
FF80
E180
C0C0
C0C0
C0C0
C0C0
6180
7F80
1E00
ENDCHAR

STARTCHAR 7
ENCODING 55
SWIDTH 462 0
DWIDTH 12 0
BBX 10 16 1 0
BITMAP
FFC0
FFC0
01C0
0180
0380
0300
0700
0600
0600
0E00
0C00
0C00
1C00
1800
1800
1800
ENDCHAR

STARTCHAR 8
ENCODING 56
SWIDTH 462 0
DWIDTH 12 0
BBX 10 16 1 0
BITMAP
1E00
7F80
6180
C0C0
C0C0
C0C0
6180
3F00
7F80
6180
C0C0
C0C0
C0C0
6180
7F80
1E00
ENDCHAR

STARTCHAR 9
ENCODING 57
SWIDTH 462 0
DWIDTH 12 0
BBX 10 16 1 0
BITMAP
1E00
7F80
6180
C0C0
C0C0
C0C0
C0C0
61C0
7FC0
1EC0
00C0
00C0
00C0
6180
7F80
1E00
ENDCHAR

STARTCHAR colon
ENCODING 58
SWIDTH 269 0
DWIDTH 7 0
BBX 3 10 2 0
BITMAP
E0
E0
E0
00
00
00
00
E0
E0
E0
ENDCHAR

STARTCHAR semicolon
ENCODING 59
SWIDTH 308 0
DWIDTH 8 0
BBX 5 13 1 -3
BITMAP
38
38
38
00
00
00
00
38
38
70
60
C0
80
ENDCHAR

STARTCHAR less
ENCODING 60
SWIDTH 616 0
DWIDTH 16 0
BBX 12 12 2 2
BITMAP
0030
00F0
03C0
0F00
3C00
F000
F000
3C00
0F00
03C0
00F0
0030
ENDCHAR

STARTCHAR equal
ENCODING 61
SWIDTH 616 0
DWIDTH 16 0
BBX 12 6 2 5
BITMAP
FFF0
FFF0
0000
0000
FFF0
FFF0
ENDCHAR

STARTCHAR greater
ENCODING 62
SWIDTH 616 0
DWIDTH 16 0
BBX 12 12 2 2
BITMAP
C000
F000
3C00
0F00
03C0
00F0
00F0
03C0
0F00
3C00
F000
C000
ENDCHAR

STARTCHAR question
ENCODING 63
SWIDTH 423 0
DWIDTH 11 0
BBX 9 18 1 -1
BITMAP
3E00
7F00
E380
C180
0180
0380
0300
0700
0E00
0C00
1C00
1C00
1C00
0000
0000
1C00
1C00
1C00
ENDCHAR

STARTCHAR at
ENCODING 64
SWIDTH 616 0
DWIDTH 16 0
BBX 14 18 1 -1
BITMAP
07C0
1FF0
3830
6018
6018
C1D8
C7F8
C638
CC18
CC18
CC18
C638
C7FC
61CC
6000
7800
3FF8
0FF0
ENDCHAR

STARTCHAR A
ENCODING 65
SWIDTH 616 0
DWIDTH 16 0
BBX 14 16 1 0
BITMAP
0300
0300
0780
0780
0CC0
0CC0
1CE0
1860
3870
3030
7FF8
7FF8
6018
E01C
C00C
C00C
ENDCHAR

STARTCHAR B
ENCODING 66
SWIDTH 500 0
DWIDTH 13 0
BBX 11 16 1 0
BITMAP
FE00
FF80
C180
C0C0
C0C0
C0C0
C180
FF00
FF80
C0C0
C060
C060
C060
C0C0
FFC0
FF00
ENDCHAR

STARTCHAR C
ENCODING 67
SWIDTH 616 0
DWIDTH 16 0
BBX 14 16 1 0
BITMAP
07C0
1FF0
3C78
701C
600C
E000
C000
C000
C000
C000
E000
600C
701C
3C78
1FF0
07C0
ENDCHAR

STARTCHAR D
ENCODING 68
SWIDTH 539 0
DWIDTH 14 0
BBX 12 16 1 0
BITMAP
FE00
FF80
C3C0
C0E0
C060
C070
C030
C030
C030
C030
C070
C060
C0E0
C3C0
FF80
FE00
ENDCHAR

STARTCHAR E
ENCODING 69
SWIDTH 462 0
DWIDTH 12 0
BBX 10 16 1 0
BITMAP
FFC0
FFC0
C000
C000
C000
C000
C000
FFC0
FFC0
C000
C000
C000
C000
C000
FFC0
FFC0
ENDCHAR

STARTCHAR F
ENCODING 70
SWIDTH 462 0
DWIDTH 12 0
BBX 10 16 1 0
BITMAP
FFC0
FFC0
C000
C000
C000
C000
C000
FFC0
FFC0
C000
C000
C000
C000
C000
C000
C000
ENDCHAR

STARTCHAR G
ENCODING 71
SWIDTH 616 0
DWIDTH 16 0
BBX 14 16 1 0
BITMAP
07C0
1FF0
3C78
701C
600C
E000
C000
C000
C0FC
C0FC
E00C
600C
700C
3C3C
1FF8
07E0
ENDCHAR

STARTCHAR H
ENCODING 72
SWIDTH 539 0
DWIDTH 14 0
BBX 12 16 1 0
BITMAP
C030
C030
C030
C030
C030
C030
C030
FFF0
FFF0
C030
C030
C030
C030
C030
C030
C030
ENDCHAR

STARTCHAR I
ENCODING 73
SWIDTH 231 0
DWIDTH 6 0
BBX 2 16 2 0
BITMAP
C0
C0
C0
C0
C0
C0
C0
C0
C0
C0
C0
C0
C0
C0
C0
C0
ENDCHAR

STARTCHAR J
ENCODING 74
SWIDTH 423 0
DWIDTH 11 0
BBX 9 16 1 0
BITMAP
0180
0180
0180
0180
0180
0180
0180
0180
0180
0180
0180
C180
C180
E380
7F00
3E00
ENDCHAR

STARTCHAR K
ENCODING 75
SWIDTH 539 0
DWIDTH 14 0
BBX 13 16 1 0
BITMAP
C070
C0E0
C1C0
C380
C700
CE00
DC00
F800
FC00
CE00
C700
C380
C1C0
C0E0
C070
C038
ENDCHAR

STARTCHAR L
ENCODING 76
SWIDTH 462 0
DWIDTH 12 0
BBX 10 16 1 0
BITMAP
C000
C000
C000
C000
C000
C000
C000
C000
C000
C000
C000
C000
C000
C000
FFC0
FFC0
ENDCHAR

STARTCHAR M
ENCODING 77
SWIDTH 654 0
DWIDTH 17 0
BBX 15 16 1 0
BITMAP
C006
E00E
E00E
F01E
F01E
F83E
D836
DC76
CC66
CEE6
C6C6
C7C6
C386
C386
C106
C006
ENDCHAR

STARTCHAR N
ENCODING 78
SWIDTH 539 0
DWIDTH 14 0
BBX 12 16 1 0
BITMAP
E030
F030
F030
D830
D830
CC30
CC30
C630
C630
C330
C330
C1B0
C1B0
C0F0
C0F0
C070
ENDCHAR

STARTCHAR O
ENCODING 79
SWIDTH 654 0
DWIDTH 17 0
BBX 15 16 1 0
BITMAP
07C0
1FF0
3C78
701C
600C
E00E
C006
C006
C006
C006
E00E
600C
701C
3C78
1FF0
07C0
ENDCHAR

STARTCHAR P
ENCODING 80
SWIDTH 462 0
DWIDTH 12 0
BBX 10 16 1 0
BITMAP
FE00
FF80
C180
C0C0
C0C0
C0C0
C1C0
FF80
FE00
C000
C000
C000
C000
C000
C000
C000
ENDCHAR

STARTCHAR Q
ENCODING 81
SWIDTH 654 0
DWIDTH 17 0
BBX 15 17 1 -1
BITMAP
07C0
1FF0
3C78
701C
600C
E00E
C006
C006
C006
C006
E08E
61CC
70FC
3C78
1FF8
07DC
000E
ENDCHAR

STARTCHAR R
ENCODING 82
SWIDTH 462 0
DWIDTH 12 0
BBX 10 16 1 0
BITMAP
FE00
FF80
C180
C0C0
C0C0
C0C0
C180
FF80
FF00
C380
C180
C0C0
C0C0
C0C0
C0C0
C0C0
ENDCHAR

STARTCHAR S
ENCODING 83
SWIDTH 539 0
DWIDTH 14 0
BBX 12 16 1 0
BITMAP
1F00
7FC0
E1E0
C060
C000
E000
7800
3F00
0FC0
01E0
0070
0030
C030
F070
7FE0
1F80
ENDCHAR

STARTCHAR T
ENCODING 84
SWIDTH 462 0
DWIDTH 12 0
BBX 12 16 0 0
BITMAP
FFF0
FFF0
0600
0600
0600
0600
0600
0600
0600
0600
0600
0600
0600
0600
0600
0600
ENDCHAR

STARTCHAR U
ENCODING 85
SWIDTH 539 0
DWIDTH 14 0
BBX 12 16 1 0
BITMAP
C030
C030
C030
C030
C030
C030
C030
C030
C030
C030
C030
C030
6060
70E0
3FC0
0F00
ENDCHAR

STARTCHAR V
ENCODING 86
SWIDTH 539 0
DWIDTH 14 0
BBX 12 16 1 0
BITMAP
C030
C030
C030
6060
6060
6060
30C0
30C0
30C0
1980
1980
1980
0F00
0F00
0600
0600
ENDCHAR

STARTCHAR W
ENCODING 87
SWIDTH 770 0
DWIDTH 20 0
BBX 19 16 1 0
BITMAP
C04060
C04060
C0E060
C0E060
60E0C0
61B0C0
61B0C0
31B180
331980
331980
1B1B00
1A0F00
1E0F00
0C0600
0C0600
0C0600
ENDCHAR

STARTCHAR X
ENCODING 88
SWIDTH 654 0
DWIDTH 17 0
BBX 17 16 0 0
BITMAP
E00380
700700
380E00
1C1C00
0E3800
077000
03E000
01C000
01C000
03E000
077000
0E3800
1C1C00
380E00
700700
E00380
ENDCHAR

STARTCHAR Y
ENCODING 89
SWIDTH 616 0
DWIDTH 16 0
BBX 14 16 1 0
BITMAP
C00C
C00C
6018
7038
3030
1860
1CE0
0FC0
0780
0300
0300
0300
0300
0300
0300
0300
ENDCHAR

STARTCHAR Z
ENCODING 90
SWIDTH 500 0
DWIDTH 13 0
BBX 11 16 1 0
BITMAP
FFE0
FFE0
0060
00E0
01C0
0380
0700
0E00
1C00
3800
7000
6000
C000
C000
FFE0
FFE0
ENDCHAR

STARTCHAR bracketleft
ENCODING 91
SWIDTH 308 0
DWIDTH 8 0
BBX 5 20 2 -2
BITMAP
F8
F8
C0
C0
C0
C0
C0
C0
C0
C0
C0
C0
C0
C0
C0
C0
C0
C0
F8
F8
ENDCHAR

STARTCHAR backslash
ENCODING 92
SWIDTH 462 0
DWIDTH 12 0
BBX 11 20 1 -2
BITMAP
C000
C000
6000
6000
3000
3000
1800
1800
0C00
0C00
0600
0600
0300
0300
0180
0180
00C0
00C0
0060
0060
ENDCHAR

STARTCHAR bracketright
ENCODING 93
SWIDTH 308 0
DWIDTH 8 0
BBX 5 20 1 -2
BITMAP
F8
F8
18
18
18
18
18
18
18
18
18
18
18
18
18
18
18
18
F8
F8
ENDCHAR

STARTCHAR asciicircum
ENCODING 94
SWIDTH 500 0
DWIDTH 13 0
BBX 9 5 2 12
BITMAP
0800
1C00
3E00
7700
C180
ENDCHAR

STARTCHAR underscore
ENCODING 95
SWIDTH 462 0
DWIDTH 12 0
BBX 12 2 0 -2
BITMAP
FFF0
FFF0
ENDCHAR

STARTCHAR grave
ENCODING 96
SWIDTH 269 0
DWIDTH 7 0
BBX 5 7 1 11
BITMAP
08
18
30
70
E0
E0
E0
ENDCHAR

STARTCHAR a
ENCODING 97
SWIDTH 462 0
DWIDTH 12 0
BBX 10 10 1 0
BITMAP
1F00
7F80
61C0
00C0
1FC0
7FC0
E0C0
C1C0
FFC0
7CC0
ENDCHAR

STARTCHAR b
ENCODING 98
SWIDTH 462 0
DWIDTH 12 0
BBX 10 16 1 0
BITMAP
C000
C000
C000
C000
C000
C000
DE00
FF80
E180
C0C0
C0C0
C0C0
C0C0
E180
FF80
DE00
ENDCHAR

STARTCHAR c
ENCODING 99
SWIDTH 423 0
DWIDTH 11 0
BBX 9 10 1 0
BITMAP
1E00
7F80
6180
C000
C000
C000
C000
6180
7F80
1E00
ENDCHAR

STARTCHAR d
ENCODING 100
SWIDTH 462 0
DWIDTH 12 0
BBX 10 16 1 0
BITMAP
00C0
00C0
00C0
00C0
00C0
00C0
1EC0
7FC0
61C0
C0C0
C0C0
C0C0
C0C0
61C0
7FC0
1EC0
ENDCHAR

STARTCHAR e
ENCODING 101
SWIDTH 462 0
DWIDTH 12 0
BBX 10 10 1 0
BITMAP
1E00
7F80
6180
C0C0
FFC0
FFC0
C000
60C0
7FC0
1F00
ENDCHAR

STARTCHAR f
ENCODING 102
SWIDTH 308 0
DWIDTH 8 0
BBX 8 16 0 0
BITMAP
0F
1F
38
30
30
30
FF
FF
30
30
30
30
30
30
30
30
ENDCHAR

STARTCHAR g
ENCODING 103
SWIDTH 462 0
DWIDTH 12 0
BBX 10 15 1 -5
BITMAP
1EC0
7FC0
61C0
C0C0
C0C0
C0C0
C0C0
61C0
7FC0
1EC0
00C0
00C0
61C0
7F80
1F00
ENDCHAR

STARTCHAR h
ENCODING 104
SWIDTH 423 0
DWIDTH 11 0
BBX 9 16 1 0
BITMAP
C000
C000
C000
C000
C000
C000
DE00
FF00
E380
C180
C180
C180
C180
C180
C180
C180
ENDCHAR

STARTCHAR i
ENCODING 105
SWIDTH 231 0
DWIDTH 6 0
BBX 2 16 2 0
BITMAP
C0
C0
C0
00
00
00
C0
C0
C0
C0
C0
C0
C0
C0
C0
C0
ENDCHAR

STARTCHAR j
ENCODING 106
SWIDTH 231 0
DWIDTH 6 0
BBX 4 21 0 -5
BITMAP
30
30
30
00
00
00
30
30
30
30
30
30
30
30
30
30
30
30
30
F0
E0
ENDCHAR

STARTCHAR k
ENCODING 107
SWIDTH 385 0
DWIDTH 10 0
BBX 8 16 1 0
BITMAP
C0
C0
C0
C0
C0
C0
C3
C6
CC
D8
F0
F0
D8
CC
C6
C3
ENDCHAR

STARTCHAR l
ENCODING 108
SWIDTH 231 0
DWIDTH 6 0
BBX 2 16 2 0
BITMAP
C0
C0
C0
C0
C0
C0
C0
C0
C0
C0
C0
C0
C0
C0
C0
C0
ENDCHAR

STARTCHAR m
ENCODING 109
SWIDTH 616 0
DWIDTH 16 0
BBX 14 10 1 0
BITMAP
DC70
FEF8
E79C
C30C
C30C
C30C
C30C
C30C
C30C
C30C
ENDCHAR

STARTCHAR n
ENCODING 110
SWIDTH 423 0
DWIDTH 11 0
BBX 9 10 1 0
BITMAP
DE00
FF00
E380
C180
C180
C180
C180
C180
C180
C180
ENDCHAR

STARTCHAR o
ENCODING 111
SWIDTH 462 0
DWIDTH 12 0
BBX 10 10 1 0
BITMAP
1E00
7F80
6180
C0C0
C0C0
C0C0
C0C0
6180
7F80
1E00
ENDCHAR

STARTCHAR p
ENCODING 112
SWIDTH 462 0
DWIDTH 12 0
BBX 10 15 1 -5
BITMAP
DE00
FF80
E180
C0C0
C0C0
C0C0
C0C0
E180
FF80
DE00
C000
C000
C000
C000
C000
ENDCHAR

STARTCHAR q
ENCODING 113
SWIDTH 462 0
DWIDTH 12 0
BBX 10 15 1 -5
BITMAP
1EC0
7FC0
61C0
C0C0
C0C0
C0C0
C0C0
61C0
7FC0
1EC0
00C0
00C0
00C0
00C0
00C0
ENDCHAR

STARTCHAR r
ENCODING 114
SWIDTH 346 0
DWIDTH 9 0
BBX 7 10 1 0
BITMAP
CE
DE
F0
E0
C0
C0
C0
C0
C0
C0
ENDCHAR

STARTCHAR s
ENCODING 115
SWIDTH 423 0
DWIDTH 11 0
BBX 9 10 1 0
BITMAP
3E00
7F80
C180
E000
7C00
1F00
0380
C180
FF80
3E00
ENDCHAR

STARTCHAR t
ENCODING 116
SWIDTH 346 0
DWIDTH 9 0
BBX 7 14 1 0
BITMAP
10
30
30
30
FE
FE
30
30
30
30
30
30
3E
1E
ENDCHAR

STARTCHAR u
ENCODING 117
SWIDTH 423 0
DWIDTH 11 0
BBX 9 10 1 0
BITMAP
C180
C180
C180
C180
C180
C180
C180
E380
7F80
3D80
ENDCHAR

STARTCHAR v
ENCODING 118
SWIDTH 462 0
DWIDTH 12 0
BBX 10 10 1 0
BITMAP
C0C0
C0C0
6180
6180
3300
3300
1E00
1E00
0C00
0C00
ENDCHAR

STARTCHAR w
ENCODING 119
SWIDTH 616 0
DWIDTH 16 0
BBX 14 10 1 0
BITMAP
C30C
C30C
C30C
6798
6798
6498
3CF0
3CF0
1860
1860
ENDCHAR

STARTCHAR x
ENCODING 120
SWIDTH 423 0
DWIDTH 11 0
BBX 11 10 0 0
BITMAP
C060
E0C0
7180
3F00
1E00
0E00
1F00
3380
61C0
C0E0
ENDCHAR

STARTCHAR y
ENCODING 121
SWIDTH 462 0
DWIDTH 12 0
BBX 10 15 1 -5
BITMAP
C0C0
C0C0
6180
6180
3300
3300
1E00
1E00
0C00
0C00
1800
1800
3000
3000
6000
ENDCHAR

STARTCHAR z
ENCODING 122
SWIDTH 423 0
DWIDTH 11 0
BBX 9 10 1 0
BITMAP
FF80
FF80
0300
0600
0C00
1800
3000
6000
FF80
FF80
ENDCHAR

STARTCHAR braceleft
ENCODING 123
SWIDTH 423 0
DWIDTH 11 0
BBX 8 20 2 -2
BITMAP
07
0C
18
18
18
18
18
18
38
F0
F0
38
18
18
18
18
18
18
0C
07
ENDCHAR

STARTCHAR bar
ENCODING 124
SWIDTH 308 0
DWIDTH 8 0
BBX 2 18 2 -1
BITMAP
C0
C0
C0
C0
C0
C0
C0
C0
00
00
C0
C0
C0
C0
C0
C0
C0
C0
ENDCHAR

STARTCHAR braceright
ENCODING 125
SWIDTH 423 0
DWIDTH 11 0
BBX 8 20 1 -2
BITMAP
E0
30
18
18
18
18
18
18
1C
0F
0F
1C
18
18
18
18
18
18
30
E0
ENDCHAR

STARTCHAR asciitilde
ENCODING 126
SWIDTH 577 0
DWIDTH 15 0
BBX 11 4 2 6
BITMAP
7820
FE60
CFE0
83C0
ENDCHAR

STARTCHAR C000177
ENCODING 127
SWIDTH 693 0
DWIDTH 18 0
BBX 18 26 0 -6
BITMAP
AAAA80
555540
AAAA80
555540
AAAA80
555540
AAAA80
555540
AAAA80
555540
AAAA80
555540
AAAA80
555540
AAAA80
555540
AAAA80
555540
AAAA80
555540
AAAA80
555540
AAAA80
555540
AAAA80
555540
ENDCHAR

STARTCHAR NoBreakSpace
ENCODING 160
SWIDTH 269 0
DWIDTH 7 0
BBX 1 1 0 0
BITMAP
00
ENDCHAR

STARTCHAR CyrillicIo
ENCODING 161
SWIDTH 462 0
DWIDTH 12 0
BBX 10 20 1 0
BITMAP
3300
3300
0000
0000
FFC0
FFC0
C000
C000
C000
C000
C000
FFC0
FFC0
C000
C000
C000
C000
C000
FFC0
FFC0
ENDCHAR

STARTCHAR SerboCroatDje
ENCODING 162
SWIDTH 577 0
DWIDTH 15 0
BBX 14 16 0 0
BITMAP
FFF0
FFF0
0600
0600
0600
0600
0600
07F0
07F8
061C
060C
060C
060C
060C
0618
0630
ENDCHAR

STARTCHAR MacedonianGje
ENCODING 163
SWIDTH 462 0
DWIDTH 12 0
BBX 10 20 1 0
BITMAP
0700
0E00
1800
0000
FFC0
FFC0
C000
C000
C000
C000
C000
C000
C000
C000
C000
C000
C000
C000
C000
C000
ENDCHAR

STARTCHAR UkrainianIe
ENCODING 164
SWIDTH 616 0
DWIDTH 16 0
BBX 14 16 1 0
BITMAP
07C0
1FF0
3C78
701C
600C
E000
C000
FFC0
FFC0
C000
E000
600C
701C
3C78
1FF0
07C0
ENDCHAR

STARTCHAR MacedonianDze
ENCODING 165
SWIDTH 539 0
DWIDTH 14 0
BBX 12 16 1 0
BITMAP
1F00
7FC0
E1E0
C060
C000
E000
7800
3F00
0FC0
01E0
0070
0030
C030
F070
7FE0
1F80
ENDCHAR

STARTCHAR ByeloRuUkrainI
ENCODING 166
SWIDTH 231 0
DWIDTH 6 0
BBX 2 16 2 0
BITMAP
C0
C0
C0
C0
C0
C0
C0
C0
C0
C0
C0
C0
C0
C0
C0
C0
ENDCHAR

STARTCHAR UkrainianYi
ENCODING 167
SWIDTH 231 0
DWIDTH 6 0
BBX 6 20 0 0
BITMAP
CC
CC
CC
00
00
30
30
30
30
30
30
30
30
30
30
30
30
30
30
30
ENDCHAR

STARTCHAR CyrillicJe
ENCODING 168
SWIDTH 423 0
DWIDTH 11 0
BBX 9 16 1 0
BITMAP
0180
0180
0180
0180
0180
0180
0180
0180
0180
0180
0180
C180
C180
E380
7F00
3E00
ENDCHAR

STARTCHAR CyrillicLje
ENCODING 169
SWIDTH 770 0
DWIDTH 20 0
BBX 19 16 0 0
BITMAP
0FE000
1FE000
386000
306000
306000
306000
306000
307F00
307F80
3060C0
306060
306060
306060
3060C0
607FC0
C07F00
ENDCHAR

STARTCHAR CyrillicNje
ENCODING 170
SWIDTH 770 0
DWIDTH 20 0
BBX 18 16 1 0
BITMAP
C0C000
C0C000
C0C000
C0C000
C0C000
C0C000
C0C000
FFFE00
FFFF00
C0C180
C0C0C0
C0C0C0
C0C0C0
C0C180
C0FF80
C0FE00
ENDCHAR

STARTCHAR SerboCroatTshe
ENCODING 171
SWIDTH 577 0
DWIDTH 15 0
BBX 14 16 0 0
BITMAP
FFF0
FFF0
0600
0600
0600
0600
0600
07F0
07F8
061C
060C
060C
060C
060C
060C
060C
ENDCHAR

STARTCHAR MacedonianKje
ENCODING 172
SWIDTH 539 0
DWIDTH 14 0
BBX 13 20 1 0
BITMAP
0380
0700
0C00
0000
C070
C0E0
C1C0
C380
C700
CE00
DC00
F800
FC00
CE00
C700
C380
C1C0
C0E0
C070
C038
ENDCHAR

STARTCHAR SoftHyphen
ENCODING 173
SWIDTH 616 0
DWIDTH 16 0
BBX 12 2 2 7
BITMAP
FFF0
FFF0
ENDCHAR

STARTCHAR ByeloRusShortU
ENCODING 174
SWIDTH 500 0
DWIDTH 13 0
BBX 11 20 1 0
BITMAP
60C0
3F80
1F00
0000
C060
C060
C060
C060
C060
C060
C060
6060
7FE0
3FE0
0060
0060
0060
E0C0
7FC0
3F80
ENDCHAR

STARTCHAR CyrillicDzhe
ENCODING 175
SWIDTH 539 0
DWIDTH 14 0
BBX 12 19 1 -3
BITMAP
C030
C030
C030
C030
C030
C030
C030
C030
C030
C030
C030
C030
C030
C030
FFF0
FFF0
0600
0600
0600
ENDCHAR

STARTCHAR CyrillicA
ENCODING 176
SWIDTH 616 0
DWIDTH 16 0
BBX 14 16 1 0
BITMAP
0300
0300
0780
0780
0CC0
0CC0
1CE0
1860
3870
3030
7FF8
7FF8
6018
E01C
C00C
C00C
ENDCHAR

STARTCHAR CyrillicBe
ENCODING 177
SWIDTH 500 0
DWIDTH 13 0
BBX 11 16 1 0
BITMAP
FFC0
FFC0
C000
C000
C000
C000
C000
FF00
FF80
C0C0
C060
C060
C060
C0C0
FFC0
FF00
ENDCHAR

STARTCHAR CyrillicVe
ENCODING 178
SWIDTH 500 0
DWIDTH 13 0
BBX 11 16 1 0
BITMAP
FE00
FF80
C180
C0C0
C0C0
C0C0
C180
FF00
FF80
C0C0
C060
C060
C060
C0C0
FFC0
FF00
ENDCHAR

STARTCHAR CyrillicGhe
ENCODING 179
SWIDTH 423 0
DWIDTH 11 0
BBX 10 16 1 0
BITMAP
FFC0
FFC0
C000
C000
C000
C000
C000
C000
C000
C000
C000
C000
C000
C000
C000
C000
ENDCHAR

STARTCHAR CyrillicDe
ENCODING 180
SWIDTH 616 0
DWIDTH 16 0
BBX 14 19 1 -3
BITMAP
0FF0
1FF0
3830
3030
3030
3030
3030
3030
3030
3030
3030
3030
3030
3030
FFFC
FFFC
C00C
C00C
C00C
ENDCHAR

STARTCHAR CyrillicIe
ENCODING 181
SWIDTH 462 0
DWIDTH 12 0
BBX 10 16 1 0
BITMAP
FFC0
FFC0
C000
C000
C000
C000
C000
FFC0
FFC0
C000
C000
C000
C000
C000
FFC0
FFC0
ENDCHAR

STARTCHAR CyrillicZhe
ENCODING 182
SWIDTH 770 0
DWIDTH 20 0
BBX 20 16 0 0
BITMAP
E06070
7060E0
3861C0
1C6380
0E6700
076E00
03FC00
01F800
03FC00
076E00
0E6700
1C6380
3861C0
7060E0
E06070
C06030
ENDCHAR

STARTCHAR CyrillicZe
ENCODING 183
SWIDTH 462 0
DWIDTH 12 0
BBX 10 16 1 0
BITMAP
1E00
7F80
E1C0
C0C0
00C0
00C0
0180
0F00
0F80
01C0
00C0
00C0
C0C0
E1C0
7F80
1E00
ENDCHAR

STARTCHAR CyrillicI
ENCODING 184
SWIDTH 539 0
DWIDTH 14 0
BBX 12 16 1 0
BITMAP
C070
C0F0
C0F0
C1B0
C1B0
C330
C330
C630
C630
CC30
CC30
D830
D830
F030
F030
E030
ENDCHAR

STARTCHAR CyrillicShortI
ENCODING 185
SWIDTH 539 0
DWIDTH 14 0
BBX 12 20 1 0
BITMAP
60C0
3F80
1F00
0000
C070
C0F0
C0F0
C1B0
C1B0
C330
C330
C630
C630
CC30
CC30
D830
D830
F030
F030
E030
ENDCHAR

STARTCHAR CyrillicKa
ENCODING 186
SWIDTH 539 0
DWIDTH 14 0
BBX 13 16 1 0
BITMAP
C070
C0E0
C1C0
C380
C700
CE00
DC00
F800
FC00
CE00
C700
C380
C1C0
C0E0
C070
C038
ENDCHAR

STARTCHAR CyrillicEl
ENCODING 187
SWIDTH 500 0
DWIDTH 13 0
BBX 12 16 0 0
BITMAP
0FF0
1FF0
3830
3030
3030
3030
3030
3030
3030
3030
3030
3030
3030
3030
6030
C030
ENDCHAR

STARTCHAR CyrillicEm
ENCODING 188
SWIDTH 654 0
DWIDTH 17 0
BBX 15 16 1 0
BITMAP
C006
E00E
E00E
F01E
F01E
F83E
D836
DC76
CC66
CEE6
C6C6
C7C6
C386
C386
C106
C006
ENDCHAR

STARTCHAR CyrillicEn
ENCODING 189
SWIDTH 539 0
DWIDTH 14 0
BBX 12 16 1 0
BITMAP
C030
C030
C030
C030
C030
C030
C030
FFF0
FFF0
C030
C030
C030
C030
C030
C030
C030
ENDCHAR

STARTCHAR CyrillicO
ENCODING 190
SWIDTH 654 0
DWIDTH 17 0
BBX 15 16 1 0
BITMAP
07C0
1FF0
3C78
701C
600C
E00E
C006
C006
C006
C006
E00E
600C
701C
3C78
1FF0
07C0
ENDCHAR

STARTCHAR CyrillicPe
ENCODING 191
SWIDTH 539 0
DWIDTH 14 0
BBX 12 16 1 0
BITMAP
FFF0
FFF0
C030
C030
C030
C030
C030
C030
C030
C030
C030
C030
C030
C030
C030
C030
ENDCHAR

STARTCHAR CyrillicEr
ENCODING 192
SWIDTH 462 0
DWIDTH 12 0
BBX 10 16 1 0
BITMAP
FE00
FF80
C180
C0C0
C0C0
C0C0
C1C0
FF80
FE00
C000
C000
C000
C000
C000
C000
C000
ENDCHAR

STARTCHAR CyrillicEs
ENCODING 193
SWIDTH 616 0
DWIDTH 16 0
BBX 14 16 1 0
BITMAP
07C0
1FF0
3C78
701C
600C
E000
C000
C000
C000
C000
E000
600C
701C
3C78
1FF0
07C0
ENDCHAR

STARTCHAR CyrillicTe
ENCODING 194
SWIDTH 462 0
DWIDTH 12 0
BBX 12 16 0 0
BITMAP
FFF0
FFF0
0600
0600
0600
0600
0600
0600
0600
0600
0600
0600
0600
0600
0600
0600
ENDCHAR

STARTCHAR CyrillicU
ENCODING 195
SWIDTH 500 0
DWIDTH 13 0
BBX 11 16 1 0
BITMAP
C060
C060
C060
C060
C060
C060
C060
6060
7FE0
3FE0
0060
0060
0060
E0C0
7FC0
3F80
ENDCHAR

STARTCHAR CyrillicEf
ENCODING 196
SWIDTH 693 0
DWIDTH 18 0
BBX 16 16 1 0
BITMAP
0180
1FF8
7FFE
6186
C183
C183
C183
C183
C183
C183
E187
7FFE
3FFC
0180
0180
0180
ENDCHAR

STARTCHAR CyrillicHa
ENCODING 197
SWIDTH 654 0
DWIDTH 17 0
BBX 17 16 0 0
BITMAP
E00380
700700
380E00
1C1C00
0E3800
077000
03E000
01C000
01C000
03E000
077000
0E3800
1C1C00
380E00
700700
E00380
ENDCHAR

STARTCHAR CyrillicTse
ENCODING 198
SWIDTH 616 0
DWIDTH 16 0
BBX 14 19 1 -3
BITMAP
C030
C030
C030
C030
C030
C030
C030
C030
C030
C030
C030
C030
C030
C030
FFFC
FFFC
000C
000C
000C
ENDCHAR

STARTCHAR CyrillicChe
ENCODING 199
SWIDTH 500 0
DWIDTH 13 0
BBX 11 16 1 0
BITMAP
C060
C060
C060
C060
C060
C060
C060
6060
7FE0
3FE0
0060
0060
0060
0060
0060
0060
ENDCHAR

STARTCHAR CyrillicSha
ENCODING 200
SWIDTH 616 0
DWIDTH 16 0
BBX 14 16 1 0
BITMAP
C30C
C30C
C30C
C30C
C30C
C30C
C30C
C30C
C30C
C30C
C30C
C30C
C30C
C30C
FFFC
FFFC
ENDCHAR

STARTCHAR CyrillicShcha
ENCODING 201
SWIDTH 693 0
DWIDTH 18 0
BBX 16 19 1 -3
BITMAP
C30C
C30C
C30C
C30C
C30C
C30C
C30C
C30C
C30C
C30C
C30C
C30C
C30C
C30C
FFFF
FFFF
0003
0003
0003
ENDCHAR

STARTCHAR CyrillHardSign
ENCODING 202
SWIDTH 577 0
DWIDTH 15 0
BBX 14 16 0 0
BITMAP
F800
F800
1800
1800
1800
1800
1800
1FE0
1FF0
1818
180C
180C
180C
1818
1FF8
1FE0
ENDCHAR

STARTCHAR CyrillicYeru
ENCODING 203
SWIDTH 654 0
DWIDTH 17 0
BBX 15 16 1 0
BITMAP
C006
C006
C006
C006
C006
C006
C006
FF06
FF86
C0C6
C066
C066
C066
C0C6
FFC6
FF06
ENDCHAR

STARTCHAR CyrillSoftSign
ENCODING 204
SWIDTH 500 0
DWIDTH 13 0
BBX 11 16 1 0
BITMAP
C000
C000
C000
C000
C000
C000
C000
FF00
FF80
C0C0
C060
C060
C060
C0C0
FFC0
FF00
ENDCHAR

STARTCHAR CyrillicE
ENCODING 205
SWIDTH 616 0
DWIDTH 16 0
BBX 14 16 1 0
BITMAP
0F80
3FE0
78F0
E038
C018
001C
000C
0FFC
0FFC
000C
001C
C018
E038
78F0
3FE0
0F80
ENDCHAR

STARTCHAR CyrillicYu
ENCODING 206
SWIDTH 808 0
DWIDTH 21 0
BBX 19 16 1 0
BITMAP
C07C00
C1FF00
C3C780
C701C0
C600C0
CE00E0
CC0060
FC0060
FC0060
CC0060
CE00E0
C600C0
C701C0
C3C780
C1FF00
C07C00
ENDCHAR

STARTCHAR CyrillicYa
ENCODING 207
SWIDTH 462 0
DWIDTH 12 0
BBX 10 16 1 0
BITMAP
1FC0
7FC0
60C0
C0C0
C0C0
C0C0
60C0
7FC0
3FC0
18C0
30C0
30C0
60C0
60C0
C0C0
C0C0
ENDCHAR

STARTCHAR cyrillicA
ENCODING 208
SWIDTH 462 0
DWIDTH 12 0
BBX 10 10 1 0
BITMAP
1F00
7F80
61C0
00C0
1FC0
7FC0
E0C0
C1C0
FFC0
7CC0
ENDCHAR

STARTCHAR cyrillicBe
ENCODING 209
SWIDTH 462 0
DWIDTH 12 0
BBX 10 17 1 0
BITMAP
0080
1F80
3F00
6000
6000
C000
C000
DE00
FF80
E180
C0C0
C0C0
C0C0
C0C0
6180
7F80
1E00
ENDCHAR

STARTCHAR cyrillicVe
ENCODING 210
SWIDTH 423 0
DWIDTH 11 0
BBX 9 10 1 0
BITMAP
FF00
FF80
C180
C180
FF00
FF00
C180
C180
FF80
FF00
ENDCHAR

STARTCHAR cyrillicGhe
ENCODING 211
SWIDTH 308 0
DWIDTH 8 0
BBX 7 10 1 0
BITMAP
FE
FE
C0
C0
C0
C0
C0
C0
C0
C0
ENDCHAR

STARTCHAR cyrillicDe
ENCODING 212
SWIDTH 462 0
DWIDTH 12 0
BBX 12 13 0 -3
BITMAP
0FC0
1FC0
38C0
30C0
30C0
30C0
30C0
30C0
FFF0
FFF0
C030
C030
C030
ENDCHAR

STARTCHAR cyrillicIe
ENCODING 213
SWIDTH 462 0
DWIDTH 12 0
BBX 10 10 1 0
BITMAP
1E00
7F80
6180
C0C0
FFC0
FFC0
C000
60C0
7FC0
1F00
ENDCHAR

STARTCHAR cyrillicZhe
ENCODING 214
SWIDTH 616 0
DWIDTH 16 0
BBX 14 10 1 0
BITMAP
C30C
6318
3330
1B60
0FC0
0FC0
1B60
3330
6318
C30C
ENDCHAR

STARTCHAR cyrillicZe
ENCODING 215
SWIDTH 385 0
DWIDTH 10 0
BBX 8 10 1 0
BITMAP
7E
FF
C3
03
0E
0E
03
C3
FF
7E
ENDCHAR

STARTCHAR cyrillicI
ENCODING 216
SWIDTH 423 0
DWIDTH 11 0
BBX 9 10 1 0
BITMAP
C180
C180
C180
C380
C780
CD80
D980
F180
E180
C180
ENDCHAR

STARTCHAR cyrillicShortI
ENCODING 217
SWIDTH 423 0
DWIDTH 11 0
BBX 9 15 1 0
BITMAP
6300
3E00
1C00
0000
0000
C180
C180
C180
C380
C780
CD80
D980
F180
E180
C180
ENDCHAR

STARTCHAR cyrillicKa
ENCODING 218
SWIDTH 385 0
DWIDTH 10 0
BBX 8 10 1 0
BITMAP
C3
C6
CC
D8
F0
F0
D8
CC
C6
C3
ENDCHAR

STARTCHAR cyrillicEl
ENCODING 219
SWIDTH 423 0
DWIDTH 11 0
BBX 10 10 0 0
BITMAP
0FC0
1FC0
38C0
30C0
30C0
30C0
30C0
30C0
60C0
C0C0
ENDCHAR

STARTCHAR cyrillicEm
ENCODING 220
SWIDTH 616 0
DWIDTH 16 0
BBX 14 10 1 0
BITMAP
C00C
E01C
F03C
D86C
CCCC
C78C
C30C
C00C
C00C
C00C
ENDCHAR

STARTCHAR cyrillicEn
ENCODING 221
SWIDTH 423 0
DWIDTH 11 0
BBX 9 10 1 0
BITMAP
C180
C180
C180
C180
FF80
FF80
C180
C180
C180
C180
ENDCHAR

STARTCHAR cyrillicO
ENCODING 222
SWIDTH 462 0
DWIDTH 12 0
BBX 10 10 1 0
BITMAP
1E00
7F80
6180
C0C0
C0C0
C0C0
C0C0
6180
7F80
1E00
ENDCHAR

STARTCHAR cyrillicPe
ENCODING 223
SWIDTH 423 0
DWIDTH 11 0
BBX 9 10 1 0
BITMAP
FF80
FF80
C180
C180
C180
C180
C180
C180
C180
C180
ENDCHAR

STARTCHAR cyrillicEr
ENCODING 224
SWIDTH 462 0
DWIDTH 12 0
BBX 10 15 1 -5
BITMAP
DE00
FF80
E180
C0C0
C0C0
C0C0
C0C0
E180
FF80
DE00
C000
C000
C000
C000
C000
ENDCHAR

STARTCHAR cyrillicEs
ENCODING 225
SWIDTH 423 0
DWIDTH 11 0
BBX 9 10 1 0
BITMAP
1E00
7F80
6180
C000
C000
C000
C000
6180
7F80
1E00
ENDCHAR

STARTCHAR cyrillicTe
ENCODING 226
SWIDTH 385 0
DWIDTH 10 0
BBX 10 10 0 0
BITMAP
FFC0
FFC0
0C00
0C00
0C00
0C00
0C00
0C00
0C00
0C00
ENDCHAR

STARTCHAR cyrillicU
ENCODING 227
SWIDTH 462 0
DWIDTH 12 0
BBX 10 15 1 -5
BITMAP
C0C0
C0C0
6180
6180
3300
3300
1E00
1E00
0C00
0C00
1800
1800
3000
3000
6000
ENDCHAR

STARTCHAR cyrillicEf
ENCODING 228
SWIDTH 693 0
DWIDTH 18 0
BBX 16 17 1 -5
BITMAP
0180
0180
1FF8
7FFE
6186
C183
C183
C183
C183
6186
7FFE
1FF8
0180
0180
0180
0180
0180
ENDCHAR

STARTCHAR cyrillicHa
ENCODING 229
SWIDTH 423 0
DWIDTH 11 0
BBX 11 10 0 0
BITMAP
C060
E0C0
7180
3F00
1E00
0E00
1F00
3380
61C0
C0E0
ENDCHAR

STARTCHAR cyrillicTse
ENCODING 230
SWIDTH 500 0
DWIDTH 13 0
BBX 11 13 1 -3
BITMAP
C180
C180
C180
C180
C180
C180
C180
C180
FFE0
FFE0
0060
0060
0060
ENDCHAR

STARTCHAR cyrillicChe
ENCODING 231
SWIDTH 385 0
DWIDTH 10 0
BBX 8 10 1 0
BITMAP
C3
C3
C3
C3
FF
7F
03
03
03
03
ENDCHAR

STARTCHAR cyrillicSha
ENCODING 232
SWIDTH 462 0
DWIDTH 12 0
BBX 10 10 1 0
BITMAP
CCC0
CCC0
CCC0
CCC0
CCC0
CCC0
CCC0
CCC0
FFC0
FFC0
ENDCHAR

STARTCHAR cyrillicShcha
ENCODING 233
SWIDTH 539 0
DWIDTH 14 0
BBX 12 13 1 -3
BITMAP
CCC0
CCC0
CCC0
CCC0
CCC0
CCC0
CCC0
CCC0
FFF0
FFF0
0030
0030
0030
ENDCHAR

STARTCHAR cyrillHardSign
ENCODING 234
SWIDTH 462 0
DWIDTH 12 0
BBX 11 10 0 0
BITMAP
F800
F800
1800
1800
1FC0
1FE0
1860
1860
1FE0
1FC0
ENDCHAR

STARTCHAR cyrillicYeru
ENCODING 235
SWIDTH 539 0
DWIDTH 14 0
BBX 12 10 1 0
BITMAP
C030
C030
C030
C030
FE30
FF30
C330
C330
FF30
FE30
ENDCHAR

STARTCHAR cyrillSoftSign
ENCODING 236
SWIDTH 385 0
DWIDTH 10 0
BBX 8 10 1 0
BITMAP
C0
C0
C0
C0
FE
FF
C3
C3
FF
FE
ENDCHAR

STARTCHAR cyrillicE
ENCODING 237
SWIDTH 423 0
DWIDTH 11 0
BBX 9 10 1 0
BITMAP
3C00
FF00
C300
0180
1F80
1F80
0180
C300
FF00
3C00
ENDCHAR

STARTCHAR cyrillicYu
ENCODING 238
SWIDTH 616 0
DWIDTH 16 0
BBX 14 10 1 0
BITMAP
C1E0
C7F8
C618
CC0C
FC0C
FC0C
CC0C
C618
C7F8
C1E0
ENDCHAR

STARTCHAR cyrillicYa
ENCODING 239
SWIDTH 385 0
DWIDTH 10 0
BBX 8 10 1 0
BITMAP
7F
FF
C3
C3
FF
7F
1B
33
63
C3
ENDCHAR

STARTCHAR NumberAcronym
ENCODING 240
SWIDTH 770 0
DWIDTH 20 0
BBX 18 16 1 0
BITMAP
E03000
F03000
F03380
D836C0
D83440
CC36C0
CC3380
C63000
C63000
C337C0
C337C0
C1B000
C1B000
C0F000
C0F000
C07000
ENDCHAR

STARTCHAR cyrillicIo
ENCODING 241
SWIDTH 462 0
DWIDTH 12 0
BBX 10 15 1 0
BITMAP
3180
3180
3180
0000
0000
1E00
7F80
6180
C0C0
FFC0
FFC0
C000
60C0
7FC0
1F00
ENDCHAR

STARTCHAR serboCroatDje
ENCODING 242
SWIDTH 423 0
DWIDTH 11 0
BBX 10 19 0 -3
BITMAP
6000
6000
F800
F800
6000
6000
6F00
7F80
71C0
60C0
60C0
60C0
60C0
60C0
60C0
60C0
00C0
0180
0300
ENDCHAR

STARTCHAR macedonianGje
ENCODING 243
SWIDTH 346 0
DWIDTH 9 0
BBX 7 15 1 0
BITMAP
0E
1C
30
00
00
FE
FE
C0
C0
C0
C0
C0
C0
C0
C0
ENDCHAR

STARTCHAR ukrainianIe
ENCODING 244
SWIDTH 423 0
DWIDTH 11 0
BBX 9 10 1 0
BITMAP
1E00
7F80
6180
C000
FC00
FC00
C000
6180
7F80
1E00
ENDCHAR

STARTCHAR macedonianDze
ENCODING 245
SWIDTH 423 0
DWIDTH 11 0
BBX 9 10 1 0
BITMAP
3E00
7F80
C180
E000
7C00
1F00
0380
C180
FF80
3E00
ENDCHAR

STARTCHAR byeloRuUkrainI
ENCODING 246
SWIDTH 231 0
DWIDTH 6 0
BBX 2 16 2 0
BITMAP
C0
C0
C0
00
00
00
C0
C0
C0
C0
C0
C0
C0
C0
C0
C0
ENDCHAR

STARTCHAR ukrainianYi
ENCODING 247
SWIDTH 231 0
DWIDTH 6 0
BBX 6 16 0 0
BITMAP
CC
CC
CC
00
00
00
30
30
30
30
30
30
30
30
30
30
ENDCHAR

STARTCHAR cyrillicJe
ENCODING 248
SWIDTH 231 0
DWIDTH 6 0
BBX 4 21 0 -5
BITMAP
30
30
30
00
00
00
30
30
30
30
30
30
30
30
30
30
30
30
30
F0
E0
ENDCHAR

STARTCHAR cyrillicLje
ENCODING 249
SWIDTH 616 0
DWIDTH 16 0
BBX 15 10 0 0
BITMAP
0FC0
1FC0
38C0
30C0
30FC
30FE
30C6
30C6
60FE
C0FC
ENDCHAR

STARTCHAR cyrillicNje
ENCODING 250
SWIDTH 616 0
DWIDTH 16 0
BBX 14 10 1 0
BITMAP
C180
C180
C180
C180
FFF8
FFFC
C18C
C18C
C1FC
C1F8
ENDCHAR

STARTCHAR serboCroatTshe
ENCODING 251
SWIDTH 423 0
DWIDTH 11 0
BBX 10 16 0 0
BITMAP
6000
6000
F800
F800
6000
6000
6F00
7F80
71C0
60C0
60C0
60C0
60C0
60C0
60C0
60C0
ENDCHAR

STARTCHAR macedonianKje
ENCODING 252
SWIDTH 385 0
DWIDTH 10 0
BBX 8 15 1 0
BITMAP
0E
1C
30
00
00
C3
C6
CC
D8
F0
F0
D8
CC
C6
C3
ENDCHAR

STARTCHAR ParagraphSign
ENCODING 253
SWIDTH 385 0
DWIDTH 10 0
BBX 8 19 1 -3
BITMAP
3C
7E
E7
E3
70
38
7C
CE
C6
C3
63
73
3E
1C
0E
C7
E7
7E
3C
ENDCHAR

STARTCHAR byeloRusShortU
ENCODING 254
SWIDTH 462 0
DWIDTH 12 0
BBX 10 20 1 -5
BITMAP
6180
3F00
1E00
0000
0000
C0C0
C0C0
6180
6180
3300
3300
1E00
1E00
0C00
0C00
1800
1800
3000
3000
6000
ENDCHAR

STARTCHAR cyrillicDzhe
ENCODING 255
SWIDTH 462 0
DWIDTH 12 0
BBX 10 13 1 -3
BITMAP
C0C0
C0C0
C0C0
C0C0
C0C0
C0C0
C0C0
C0C0
FFC0
FFC0
0C00
0C00
0C00
ENDCHAR
ENDFONT
